<svg width="22" height="20" viewBox="0 0 22 20" fill="none" xmlns="http://www.w3.org/2000/svg">
<path d="M17.7761 8.57184H16.4087V9.93924H17.7761C18.3199 9.93984 18.8413 10.1561 19.2258 10.5407C19.6103 10.9252 19.8266 11.4465 19.8272 11.9903V14.7252H21.1946V11.9903C21.1936 11.084 20.8331 10.2151 20.1922 9.57426C19.5513 8.93339 18.6824 8.57289 17.7761 8.57184Z" fill="white" stroke="white" stroke-width="0.5"/>
<path d="M16.4087 1.73484C16.8144 1.73484 17.211 1.85513 17.5483 2.08051C17.8856 2.30589 18.1485 2.62623 18.3037 3.00102C18.459 3.37581 18.4996 3.78822 18.4204 4.18609C18.3413 4.58397 18.1459 4.94944 17.8591 5.23629C17.5722 5.52314 17.2068 5.71849 16.8089 5.79764C16.411 5.87678 15.9986 5.83616 15.6238 5.68092C15.249 5.52567 14.9287 5.26278 14.7033 4.92547C14.4779 4.58817 14.3576 4.19161 14.3576 3.78594C14.3576 3.24195 14.5737 2.72025 14.9584 2.33559C15.3431 1.95093 15.8648 1.73484 16.4087 1.73484ZM16.4087 0.367432C15.7326 0.367432 15.0717 0.567924 14.5095 0.943554C13.9474 1.31919 13.5092 1.85308 13.2505 2.47773C12.9917 3.10239 12.924 3.78973 13.0559 4.45286C13.1878 5.11599 13.5134 5.72511 13.9915 6.20319C14.4696 6.68128 15.0787 7.00686 15.7418 7.13877C16.405 7.27067 17.0923 7.20297 17.717 6.94423C18.3416 6.68549 18.8755 6.24733 19.2511 5.68516C19.6268 5.12299 19.8273 4.46206 19.8273 3.78594C19.8273 2.8793 19.4671 2.00978 18.826 1.36869C18.1849 0.727595 17.3154 0.367432 16.4087 0.367432Z" fill="white" stroke="white" stroke-width="0.5"/>
<path d="M15.7251 19.5111H14.3577V18.1437C14.3571 17.5999 14.1409 17.0785 13.7563 16.694C13.3718 16.3094 12.8504 16.0932 12.3066 16.0926H9.57183C9.02802 16.0932 8.50667 16.3094 8.12214 16.694C7.73761 17.0785 7.52132 17.5999 7.52072 18.1437V19.5111H6.15332V18.1437C6.15439 17.2373 6.51489 16.3685 7.15576 15.7276C7.79662 15.0867 8.66551 14.7262 9.57183 14.7252H12.3066C13.213 14.7262 14.0818 15.0867 14.7227 15.7276C15.3636 16.3685 15.7241 17.2373 15.7251 18.1437V19.5111Z" fill="white" stroke="white" stroke-width="0.5"/>
<path d="M10.939 7.88816C11.3447 7.88816 11.7412 8.00845 12.0786 8.23383C12.4159 8.45921 12.6788 8.77955 12.834 9.15434C12.9892 9.52913 13.0299 9.94154 12.9507 10.3394C12.8716 10.7373 12.6762 11.1028 12.3894 11.3896C12.1025 11.6765 11.737 11.8718 11.3392 11.951C10.9413 12.0301 10.5289 11.9895 10.1541 11.8342C9.7793 11.679 9.45897 11.4161 9.23359 11.0788C9.00821 10.7415 8.88791 10.3449 8.88791 9.93926C8.88791 9.39527 9.10401 8.87357 9.48867 8.48891C9.87333 8.10425 10.395 7.88816 10.939 7.88816ZM10.939 6.52075C10.2629 6.52075 9.60197 6.72124 9.0398 7.09687C8.47763 7.47251 8.03947 8.0064 7.78073 8.63105C7.52199 9.25571 7.45429 9.94305 7.5862 10.6062C7.7181 11.2693 8.04368 11.8784 8.52177 12.3565C8.99986 12.8346 9.60898 13.1602 10.2721 13.2921C10.9352 13.424 11.6226 13.3563 12.2472 13.0976C12.8719 12.8388 13.4058 12.4007 13.7814 11.8385C14.157 11.2763 14.3575 10.6154 14.3575 9.93926C14.3575 9.03262 13.9974 8.16311 13.3563 7.52201C12.7152 6.88092 11.8457 6.52075 10.939 6.52075Z" fill="white" stroke="white" stroke-width="0.5"/>
<path d="M5.46951 8.57184H4.1021C3.19578 8.57291 2.32689 8.93341 1.68603 9.57428C1.04517 10.2151 0.684661 11.084 0.683594 11.9903V14.7252H2.051V11.9903C2.05159 11.4465 2.26788 10.9252 2.65241 10.5407C3.03694 10.1561 3.5583 9.93984 4.1021 9.93924H5.46951V8.57184Z" fill="white" stroke="white" stroke-width="0.5"/>
<path d="M5.46954 1.73484C5.87521 1.73484 6.27177 1.85513 6.60907 2.08051C6.94637 2.30589 7.20927 2.62623 7.36451 3.00102C7.51975 3.37581 7.56037 3.78822 7.48123 4.18609C7.40209 4.58397 7.20674 4.94944 6.91989 5.23629C6.63304 5.52314 6.26756 5.71849 5.86969 5.79764C5.47181 5.87678 5.0594 5.83616 4.68461 5.68092C4.30982 5.52567 3.98948 5.26278 3.7641 4.92547C3.53873 4.58817 3.41843 4.19161 3.41843 3.78594C3.41843 3.24195 3.63453 2.72025 4.01919 2.33559C4.40384 1.95093 4.92555 1.73484 5.46954 1.73484ZM5.46954 0.367432C4.79342 0.367432 4.13249 0.567924 3.57031 0.943554C3.00814 1.31919 2.56998 1.85308 2.31125 2.47773C2.05251 3.10239 1.98481 3.78973 2.11671 4.45286C2.24862 5.11599 2.5742 5.72511 3.05229 6.20319C3.53037 6.68128 4.13949 7.00686 4.80262 7.13877C5.46574 7.27067 6.15309 7.20297 6.77774 6.94423C7.40239 6.68549 7.93629 6.24733 8.31192 5.68516C8.68755 5.12299 8.88805 4.46206 8.88805 3.78594C8.88805 2.8793 8.52788 2.00978 7.88679 1.36869C7.24569 0.727595 6.37618 0.367432 5.46954 0.367432Z" fill="white" stroke="white" stroke-width="0.5"/>
</svg>
