<svg width="18" height="18" viewBox="0 0 18 18" fill="none" xmlns="http://www.w3.org/2000/svg">
<path d="M9.5 11C10.3284 11 11 11.6716 11 12.5V13C11 14.9714 9.1405 17 6 17C2.85951 17 1 14.9714 1 13V12.5C1 11.6716 1.67157 11 2.5 11H9.5ZM9.5 12H2.5C2.22386 12 2 12.2239 2 12.5V13C2 14.4376 3.43216 16 6 16C8.56784 16 10 14.4376 10 13V12.5C10 12.2239 9.7761 12 9.5 12ZM6 4.5C7.51878 4.5 8.75 5.73122 8.75 7.25C8.75 8.76878 7.51878 10 6 10C4.48122 10 3.25 8.76878 3.25 7.25C3.25 5.73122 4.48122 4.5 6 4.5ZM15 1C16.0544 1 16.9182 1.81588 16.9945 2.85074L17 3V5C17 6.05436 16.1841 6.91817 15.1493 6.99451L15 7H13.499L12.301 8.59979C11.7716 9.306 10.6965 9.0199 10.5243 8.22426L10.5066 8.11264L10.5008 8L10.5 6.935L10.4224 6.91532C9.697 6.69685 9.1452 6.07753 9.0246 5.3148L9.0055 5.14926L9 5V3C9 1.94564 9.8159 1.08183 10.8507 1.00549L11 1H15ZM6 5.5C5.0335 5.5 4.25 6.2835 4.25 7.25C4.25 8.2165 5.0335 9 6 9C6.9665 9 7.75 8.2165 7.75 7.25C7.75 6.2835 6.9665 5.5 6 5.5ZM15 2H11C10.4872 2 10.0645 2.38604 10.0067 2.88338L10 3V5C10 5.51284 10.386 5.93551 10.8834 5.99327L11 6H11.5008V8L13 6H15C15.5128 6 15.9355 5.61396 15.9933 5.11662L16 5V3C16 2.48716 15.614 2.06449 15.1166 2.00673L15 2Z" fill="white" stroke="white" stroke-width="0.5"/>
</svg>
