<svg width="20" height="20" viewBox="0 0 20 20" fill="none" xmlns="http://www.w3.org/2000/svg">
<g clip-path="url(#clip0_196_435)">
<path d="M16 3.75H14.6875V2.4375C14.6875 2.19588 14.4916 2 14.25 2C14.0084 2 13.8125 2.19588 13.8125 2.4375V3.75H5.9375V2.4375C5.9375 2.19588 5.74162 2 5.5 2C5.25838 2 5.0625 2.19588 5.0625 2.4375V3.75H3.75C2.7835 3.75 2 4.5335 2 5.5V11.1875V16.875C2 17.8415 2.7835 18.625 3.75 18.625H16C16.9665 18.625 17.75 17.8415 17.75 16.875V5.5C17.75 4.5335 16.9665 3.75 16 3.75ZM16.4375 17.3125H3.3125V5.0625H16.4375V17.3125ZM9.4375 10.75H10.3125C10.5541 10.75 10.75 10.5541 10.75 10.3125V9.4375C10.75 9.19587 10.5541 9 10.3125 9H9.4375C9.19588 9 9 9.19587 9 9.4375V10.3125C9 10.5541 9.19588 10.75 9.4375 10.75ZM12.9375 10.75H13.8125C14.0541 10.75 14.25 10.5541 14.25 10.3125V9.4375C14.25 9.19587 14.0541 9 13.8125 9H12.9375C12.6959 9 12.5 9.19587 12.5 9.4375V10.3125C12.5 10.5541 12.6959 10.75 12.9375 10.75ZM5.9375 10.75H6.8125C7.05412 10.75 7.25 10.5541 7.25 10.3125V9.4375C7.25 9.19587 7.05412 9 6.8125 9H5.9375C5.69588 9 5.5 9.19587 5.5 9.4375V10.3125C5.5 10.5541 5.69588 10.75 5.9375 10.75ZM9.4375 14.25H10.3125C10.5541 14.25 10.75 14.0541 10.75 13.8125V12.9375C10.75 12.6959 10.5541 12.5 10.3125 12.5H9.4375C9.19588 12.5 9 12.6959 9 12.9375V13.8125C9 14.0541 9.19588 14.25 9.4375 14.25ZM5.9375 14.25H6.8125C7.05412 14.25 7.25 14.0541 7.25 13.8125V12.9375C7.25 12.6959 7.05412 12.5 6.8125 12.5H5.9375C5.69588 12.5 5.5 12.6959 5.5 12.9375V13.8125C5.5 14.0541 5.69588 14.25 5.9375 14.25Z" fill="white" stroke="white" stroke-width="0.5"/>
</g>
<defs>
<clipPath id="clip0_196_435">
<rect width="19.5" height="19.5" fill="white"/>
</clipPath>
</defs>
</svg>
