<svg width="20" height="20" viewBox="0 0 20 20" fill="none" xmlns="http://www.w3.org/2000/svg">
<g id="Calendar" clip-path="url(#clip0_101_971)">
<g id="ico-/-24-/-actions-/-calendar_month">
<path id="Icon-color" d="M16.625 3.52759H15.3125V2.21509C15.3125 1.97346 15.1166 1.77759 14.875 1.77759C14.6334 1.77759 14.4375 1.97346 14.4375 2.21509V3.52759H6.5625V2.21509C6.5625 1.97346 6.36662 1.77759 6.125 1.77759C5.88338 1.77759 5.6875 1.97346 5.6875 2.21509V3.52759H4.375C3.4085 3.52759 2.625 4.31109 2.625 5.27759V16.6526C2.625 17.6191 3.4085 18.4026 4.375 18.4026H16.625C17.5915 18.4026 18.375 17.6191 18.375 16.6526V5.27759C18.375 4.31109 17.5915 3.52759 16.625 3.52759ZM17.0625 17.0901H3.9375V4.84009H17.0625V17.0901ZM10.0625 10.5276H10.9375C11.1791 10.5276 11.375 10.3317 11.375 10.0901V9.21509C11.375 8.97346 11.1791 8.77759 10.9375 8.77759H10.0625C9.82088 8.77759 9.625 8.97346 9.625 9.21509V10.0901C9.625 10.3317 9.82088 10.5276 10.0625 10.5276ZM13.5625 10.5276H14.4375C14.6791 10.5276 14.875 10.3317 14.875 10.0901V9.21509C14.875 8.97346 14.6791 8.77759 14.4375 8.77759H13.5625C13.3209 8.77759 13.125 8.97346 13.125 9.21509V10.0901C13.125 10.3317 13.3209 10.5276 13.5625 10.5276ZM6.5625 10.5276H7.4375C7.67912 10.5276 7.875 10.3317 7.875 10.0901V9.21509C7.875 8.97346 7.67912 8.77759 7.4375 8.77759H6.5625C6.32088 8.77759 6.125 8.97346 6.125 9.21509V10.0901C6.125 10.3317 6.32088 10.5276 6.5625 10.5276ZM10.0625 14.0276H10.9375C11.1791 14.0276 11.375 13.8317 11.375 13.5901V12.7151C11.375 12.4735 11.1791 12.2776 10.9375 12.2776H10.0625C9.82088 12.2776 9.625 12.4735 9.625 12.7151V13.5901C9.625 13.8317 9.82088 14.0276 10.0625 14.0276ZM6.5625 14.0276H7.4375C7.67912 14.0276 7.875 13.8317 7.875 13.5901V12.7151C7.875 12.4735 7.67912 12.2776 7.4375 12.2776H6.5625C6.32088 12.2776 6.125 12.4735 6.125 12.7151V13.5901C6.125 13.8317 6.32088 14.0276 6.5625 14.0276Z" fill="#DBDDDF"/>
</g>
</g>
<defs>
<clipPath id="clip0_101_971">
<rect width="19.5" height="19.5" fill="white" transform="translate(0 0.0275879)"/>
</clipPath>
</defs>
</svg>
