<svg width="16" height="15" viewBox="0 0 16 15" fill="none" xmlns="http://www.w3.org/2000/svg">
<g clip-path="url(#clip0_45_13370)">
<path d="M6.54466 2.33087H8.41875C8.41875 1.81336 7.99922 1.39383 7.48171 1.39383C6.96419 1.39383 6.54466 1.81336 6.54466 2.33087ZM5.60762 2.33087C5.60762 1.29584 6.44668 0.456787 7.48171 0.456787C8.51673 0.456787 9.35579 1.29584 9.35579 2.33087H13.104C13.3627 2.33087 13.5725 2.54064 13.5725 2.79939C13.5725 3.05815 13.3627 3.26791 13.104 3.26791H12.5759L11.4466 11.5493C11.2883 12.71 10.297 13.5754 9.12548 13.5754H5.83793C4.66646 13.5754 3.67509 12.71 3.5168 11.5493L2.38753 3.26791H1.85945C1.60069 3.26791 1.39093 3.05815 1.39093 2.79939C1.39093 2.54064 1.60069 2.33087 1.85945 2.33087H5.60762ZM6.54466 5.61052C6.54466 5.35176 6.3349 5.142 6.07614 5.142C5.81739 5.142 5.60762 5.35176 5.60762 5.61052V10.2957C5.60762 10.5545 5.81739 10.7643 6.07614 10.7643C6.3349 10.7643 6.54466 10.5545 6.54466 10.2957V5.61052ZM8.88727 5.142C9.14603 5.142 9.35579 5.35176 9.35579 5.61052V10.2957C9.35579 10.5545 9.14603 10.7643 8.88727 10.7643C8.62851 10.7643 8.41875 10.5545 8.41875 10.2957V5.61052C8.41875 5.35176 8.62851 5.142 8.88727 5.142ZM4.44525 11.4227C4.54022 12.1191 5.13505 12.6383 5.83793 12.6383H9.12548C9.82836 12.6383 10.4232 12.1191 10.5182 11.4227L11.6302 3.26791H3.33324L4.44525 11.4227Z" fill="#424242"/>
</g>
<defs>
<clipPath id="clip0_45_13370">
<rect width="14.9927" height="14.9927" fill="white" transform="translate(0.481689 0.0161133)"/>
</clipPath>
</defs>
</svg>
