<svg width="16" height="16" viewBox="0 0 16 16" fill="none" xmlns="http://www.w3.org/2000/svg">
<g clip-path="url(#clip0_45_13360)">
<path d="M9.60871 1.92686C10.5675 0.965173 12.1248 0.96401 13.085 1.92426C14.0432 2.88249 14.0444 4.43572 13.0876 5.39538L6.08876 12.4152C5.94123 12.5632 5.76257 12.6764 5.56577 12.7466L1.84672 14.0737C1.2876 14.2732 0.748278 13.7325 0.949232 13.1739L2.2849 9.46103C2.35474 9.2669 2.46646 9.09052 2.61212 8.94442L9.60871 1.92686ZM12.4224 2.58685C11.8285 1.99292 10.8653 1.99364 10.2723 2.58846L9.54021 3.32273L11.6887 5.47127L12.424 4.73378C13.0158 4.14022 13.0151 3.17953 12.4224 2.58685ZM11.0271 6.13485L8.87861 3.98632L3.2757 9.60601C3.22715 9.65471 3.18991 9.71351 3.16663 9.77822L1.9988 13.0245L5.25085 11.8641C5.31645 11.8407 5.376 11.8029 5.42518 11.7536L11.0271 6.13485ZM8.28554 1.92678H1.39092C1.13217 1.92678 0.922402 2.13654 0.922402 2.3953C0.922402 2.65405 1.13217 2.86382 1.39092 2.86382H7.35129L8.28554 1.92678ZM6.41705 3.80086H1.39092C1.13217 3.80086 0.922402 4.01062 0.922402 4.26938C0.922402 4.52814 1.13217 4.7379 1.39092 4.7379H5.48281L6.41705 3.80086ZM4.54856 5.67495H1.39092C1.13217 5.67495 0.922402 5.88471 0.922402 6.14347C0.922402 6.40222 1.13217 6.61199 1.39092 6.61199H3.61432L4.54856 5.67495Z" fill="#424242"/>
</g>
<defs>
<clipPath id="clip0_45_13360">
<rect width="14.9927" height="14.9927" fill="white" transform="translate(0.481689 0.549072)"/>
</clipPath>
</defs>
</svg>
