<svg width="20" height="20" viewBox="0 0 20 20" fill="none" xmlns="http://www.w3.org/2000/svg">
<path d="M17.3125 3H2.6875C2.23995 3 1.81072 3.15668 1.49426 3.43558C1.17779 3.71449 1 4.09275 1 4.48718V15.5128C1 15.9072 1.17779 16.2855 1.49426 16.5644C1.81072 16.8433 2.23995 17 2.6875 17H17.3125C17.7601 17 18.1893 16.8433 18.5057 16.5644C18.8222 16.2855 19 15.9072 19 15.5128V4.48718C19 4.09275 18.8222 3.71449 18.5057 3.43558C18.1893 3.15668 17.7601 3 17.3125 3ZM16.9075 3.99145L10 9.71839L3.0925 3.99145H16.9075ZM17.875 15.5128C17.875 15.6443 17.8157 15.7704 17.7102 15.8634C17.6048 15.9563 17.4617 16.0085 17.3125 16.0085H2.6875C2.53832 16.0085 2.39524 15.9563 2.28975 15.8634C2.18426 15.7704 2.125 15.6443 2.125 15.5128V4.6012L9.67375 10.7297C9.76902 10.7894 9.88305 10.8216 10 10.8216C10.1169 10.8216 10.231 10.7894 10.3263 10.7297L17.875 4.6012V15.5128Z" fill="#DBDDDF"/>
</svg>
