<svg width="22" height="23" viewBox="0 0 22 23" fill="none" xmlns="http://www.w3.org/2000/svg">
<g id="Employee">
<g id="&#240;&#159;&#166;&#134; icon &#34;Events&#34;">
<path id="Vector" d="M17.7761 10.3895H16.4087V11.7569H17.7761C18.3199 11.7575 18.8413 11.9738 19.2258 12.3583C19.6103 12.7429 19.8266 13.2642 19.8272 13.808V16.5428H21.1946V13.808C21.1936 12.9017 20.8331 12.0328 20.1922 11.3919C19.5513 10.7511 18.6824 10.3906 17.7761 10.3895Z" fill="#DBDDDF"/>
<path id="Vector_2" d="M16.4087 3.55252C16.8144 3.55252 17.211 3.67282 17.5483 3.8982C17.8856 4.12358 18.1485 4.44391 18.3037 4.81871C18.459 5.1935 18.4996 5.6059 18.4204 6.00378C18.3413 6.40166 18.1459 6.76713 17.8591 7.05398C17.5722 7.34083 17.2068 7.53618 16.8089 7.61532C16.411 7.69447 15.9986 7.65385 15.6238 7.4986C15.249 7.34336 14.9287 7.08047 14.7033 6.74316C14.4779 6.40586 14.3576 6.0093 14.3576 5.60363C14.3576 5.05964 14.5737 4.53794 14.9584 4.15328C15.3431 3.76862 15.8648 3.55252 16.4087 3.55252ZM16.4087 2.18512C15.7326 2.18512 15.0717 2.38561 14.5095 2.76124C13.9474 3.13687 13.5092 3.67077 13.2505 4.29542C12.9917 4.92007 12.924 5.60742 13.0559 6.27055C13.1878 6.93367 13.5134 7.54279 13.9915 8.02088C14.4696 8.49897 15.0787 8.82455 15.7418 8.95645C16.405 9.08836 17.0923 9.02066 17.717 8.76192C18.3416 8.50318 18.8755 8.06502 19.2511 7.50285C19.6268 6.94068 19.8273 6.27975 19.8273 5.60363C19.8273 4.69698 19.4671 3.82747 18.826 3.18638C18.1849 2.54528 17.3154 2.18512 16.4087 2.18512Z" fill="#DBDDDF"/>
<path id="Vector_3" d="M15.7251 21.3288H14.3577V19.9614C14.3571 19.4176 14.1409 18.8962 13.7563 18.5117C13.3718 18.1271 12.8504 17.9108 12.3066 17.9102H9.57183C9.02802 17.9108 8.50667 18.1271 8.12214 18.5117C7.73761 18.8962 7.52132 19.4176 7.52072 19.9614V21.3288H6.15332V19.9614C6.15439 19.055 6.51489 18.1861 7.15576 17.5453C7.79662 16.9044 8.66551 16.5439 9.57183 16.5428H12.3066C13.213 16.5439 14.0818 16.9044 14.7227 17.5453C15.3636 18.1861 15.7241 19.055 15.7251 19.9614V21.3288Z" fill="#DBDDDF"/>
<path id="Vector_4" d="M10.939 9.70578C11.3447 9.70578 11.7412 9.82608 12.0786 10.0515C12.4159 10.2768 12.6788 10.5972 12.834 10.972C12.9892 11.3468 13.0299 11.7592 12.9507 12.157C12.8716 12.5549 12.6762 12.9204 12.3894 13.2072C12.1025 13.4941 11.737 13.6894 11.3392 13.7686C10.9413 13.8477 10.5289 13.8071 10.1541 13.6519C9.7793 13.4966 9.45897 13.2337 9.23359 12.8964C9.00821 12.5591 8.88791 12.1626 8.88791 11.7569C8.88791 11.2129 9.10401 10.6912 9.48867 10.3065C9.87333 9.92188 10.395 9.70578 10.939 9.70578ZM10.939 8.33838C10.2629 8.33838 9.60197 8.53887 9.0398 8.9145C8.47763 9.29013 8.03947 9.82403 7.78073 10.4487C7.52199 11.0733 7.45429 11.7607 7.5862 12.4238C7.7181 13.0869 8.04368 13.6961 8.52177 14.1741C8.99986 14.6522 9.60898 14.9778 10.2721 15.1097C10.9352 15.2416 11.6226 15.1739 12.2472 14.9152C12.8719 14.6564 13.4058 14.2183 13.7814 13.6561C14.157 13.0939 14.3575 12.433 14.3575 11.7569C14.3575 10.8502 13.9974 9.98073 13.3563 9.33964C12.7152 8.69854 11.8457 8.33838 10.939 8.33838Z" fill="#DBDDDF"/>
<path id="Vector_5" d="M5.46951 10.3895H4.1021C3.19578 10.3906 2.32689 10.7511 1.68603 11.392C1.04517 12.0328 0.684661 12.9017 0.683594 13.808V16.5428H2.051V13.808C2.05159 13.2642 2.26788 12.7429 2.65241 12.3583C3.03694 11.9738 3.5583 11.7575 4.1021 11.7569H5.46951V10.3895Z" fill="#DBDDDF"/>
<path id="Vector_6" d="M5.46978 3.55252C5.87545 3.55252 6.27201 3.67282 6.60931 3.8982C6.94662 4.12358 7.20951 4.44391 7.36476 4.81871C7.52 5.1935 7.56062 5.6059 7.48147 6.00378C7.40233 6.40166 7.20698 6.76713 6.92013 7.05398C6.63328 7.34083 6.26781 7.53618 5.86993 7.61532C5.47206 7.69447 5.05965 7.65385 4.68486 7.4986C4.31007 7.34336 3.98973 7.08047 3.76435 6.74316C3.53897 6.40586 3.41867 6.0093 3.41867 5.60363C3.41867 5.05964 3.63477 4.53794 4.01943 4.15328C4.40409 3.76862 4.92579 3.55252 5.46978 3.55252ZM5.46978 2.18512C4.79366 2.18512 4.13273 2.38561 3.57056 2.76124C3.00839 3.13687 2.57023 3.67077 2.31149 4.29542C2.05275 4.92007 1.98505 5.60742 2.11696 6.27055C2.24886 6.93367 2.57444 7.54279 3.05253 8.02088C3.53062 8.49897 4.13974 8.82455 4.80286 8.95645C5.46599 9.08836 6.15334 9.02066 6.77799 8.76192C7.40264 8.50318 7.93654 8.06502 8.31217 7.50285C8.6878 6.94068 8.88829 6.27975 8.88829 5.60363C8.88829 4.69698 8.52813 3.82747 7.88703 3.18638C7.24594 2.54528 6.37643 2.18512 5.46978 2.18512Z" fill="#DBDDDF"/>
</g>
</g>
</svg>
