<svg width="33" height="25" viewBox="0 0 33 25" fill="none" xmlns="http://www.w3.org/2000/svg">
<path d="M0 4.16667C0 3.0616 0.434597 2.00179 1.20818 1.22039C1.98177 0.438987 3.03098 0 4.125 0H28.875C29.969 0 31.0182 0.438987 31.7918 1.22039C32.5654 2.00179 33 3.0616 33 4.16667V20.8333C33 21.9384 32.5654 22.9982 31.7918 23.7796C31.0182 24.561 29.969 25 28.875 25H4.125C3.03098 25 1.98177 24.561 1.20818 23.7796C0.434597 22.9982 0 21.9384 0 20.8333V4.16667ZM4.125 2.08333C3.57799 2.08333 3.05339 2.30283 2.66659 2.69353C2.2798 3.08423 2.0625 3.61413 2.0625 4.16667V4.61875L16.5 13.3687L30.9375 4.61875V4.16667C30.9375 3.61413 30.7202 3.08423 30.3334 2.69353C29.9466 2.30283 29.422 2.08333 28.875 2.08333H4.125ZM30.9375 7.04792L21.2272 12.9333L30.9375 18.9687V7.04792ZM30.8674 21.3729L19.2349 14.1417L16.5 15.7979L13.7651 14.1417L2.13263 21.3708C2.24983 21.8142 2.50865 22.206 2.86892 22.4855C3.22918 22.765 3.67072 22.9166 4.125 22.9167H28.875C29.329 22.9167 29.7703 22.7655 30.1306 22.4863C30.4908 22.2072 30.7498 21.8159 30.8674 21.3729ZM2.0625 18.9687L11.7728 12.9333L2.0625 7.04792V18.9687Z" fill="#DBDDDF"/>
</svg>
