<svg width="21" height="22" viewBox="0 0 21 22" fill="none" xmlns="http://www.w3.org/2000/svg">
<g id="Feedback">
<path id="Vector" d="M11.1562 13.335C12.2435 13.335 13.125 14.2164 13.125 15.3037V15.96C13.125 18.5474 10.6844 21.21 6.5625 21.21C2.44061 21.21 0 18.5474 0 15.96V15.3037C0 14.2164 0.881436 13.335 1.96875 13.335H11.1562ZM9.99103 15.1575H2.69957C2.33714 15.1575 2.05867 15.5218 2.05867 15.8841C2.05867 15.8841 2.05867 15.3242 2.05867 16.5404C2.05867 17.7566 3.7794 19.2379 6.5625 19.2379C9.3456 19.2379 10.7146 18.0438 10.7146 16.5404V15.8841C10.7146 15.5218 10.3534 15.1575 9.99103 15.1575ZM6.5625 4.80371C8.5559 4.80371 10.1719 6.41969 10.1719 8.41309C10.1719 10.4065 8.5559 12.0225 6.5625 12.0225C4.5691 12.0225 2.95312 10.4065 2.95312 8.41309C2.95312 6.41969 4.5691 4.80371 6.5625 4.80371ZM18.375 0.209961C19.7589 0.209961 20.8926 1.2808 20.9928 2.63906L21 2.83496V5.45996C21 6.84381 19.9291 7.97756 18.571 8.07776L18.375 8.08496H16.4049L14.8326 10.1847C14.1377 11.1116 12.7267 10.7361 12.5006 9.6918L12.4774 9.5453L12.4698 9.39746L12.4688 7.99965L12.3669 7.97382C11.4148 7.68708 10.6906 6.87422 10.5323 5.87314L10.5072 5.65587L10.5 5.45996V2.83496C10.5 1.45111 11.5709 0.317363 12.929 0.217167L13.125 0.209961H18.375ZM6.5625 6.35636C5.29397 6.35636 4.5212 7.37753 4.5212 8.41309C4.5212 9.44864 5.29397 10.4683 6.5625 10.4683C7.83103 10.4683 8.56084 9.43362 8.56084 8.41309C8.56084 7.39255 7.83103 6.35636 6.5625 6.35636ZM18.375 1.82971H13.125C12.452 1.82971 12.1364 2.02914 12.0605 2.6819L12.0517 2.83496V5.45996C12.0517 6.13306 12.3191 6.44859 12.972 6.5244L13.125 6.53324H13.7823V8.99096L15.75 6.53324H18.375C19.048 6.53324 19.3523 6.26578 19.4281 5.61302L19.4369 5.45996V2.83496C19.4369 2.16186 19.1809 1.91435 18.528 1.83854L18.375 1.82971Z" fill="white"/>
<path id="Union" fill-rule="evenodd" clip-rule="evenodd" d="M6.50194 10.6139C7.69469 10.6139 8.6616 9.64696 8.6616 8.45421C8.6616 7.26147 7.69469 6.29456 6.50194 6.29456C5.3092 6.29456 4.34229 7.26147 4.34229 8.45421C4.34229 9.64696 5.3092 10.6139 6.50194 10.6139ZM6.49181 10.0935C7.38637 10.0935 8.11156 9.36828 8.11156 8.47372C8.11156 7.57915 7.38637 6.85397 6.49181 6.85397C5.59725 6.85397 4.87207 7.57915 4.87207 8.47372C4.87207 9.36828 5.59725 10.0935 6.49181 10.0935Z" fill="white"/>
</g>
</svg>
