<svg width="20" height="19" viewBox="0 0 20 19" fill="none" xmlns="http://www.w3.org/2000/svg">
<path d="M15.746 8.27086L12.5702 11.4472C12.3872 11.6302 12.3872 11.9268 12.5702 12.1098C12.7328 12.2724 12.9853 12.2905 13.1679 12.164L13.2328 12.1098L17.2083 8.13424C17.371 7.9716 17.389 7.71914 17.2625 7.53654L17.2083 7.47165L13.2328 3.49611C13.0498 3.31314 12.7532 3.31314 12.5702 3.49611C12.4075 3.65875 12.3895 3.91121 12.516 4.09381L12.5702 4.1587L15.746 7.33382L9.8492 7.33442C6.04395 7.33442 2.94505 10.3587 2.82499 14.1348L2.82138 14.3622C2.82138 14.621 3.03114 14.8308 3.2899 14.8308C3.54866 14.8308 3.75842 14.621 3.75842 14.3622C3.75842 11.0715 6.36808 8.39033 9.63074 8.27531L9.8492 8.27146L15.746 8.27086Z" fill="#115EA3"/>
</svg>
