<svg xmlns="http://www.w3.org/2000/svg"  viewBox="0 0 64 64" width="96px" height="96px"><linearGradient id="SqvxpZ3tFMaNTjPzMdxkha" x1="20.5" x2="20.5" y1="23" y2="41" gradientUnits="userSpaceOnUse"><stop offset="0" stop-color="#6dc7ff"/><stop offset="1" stop-color="#e6abff"/></linearGradient><path fill="url(#SqvxpZ3tFMaNTjPzMdxkha)" d="M20.5,41c-3.584,0-6.5-4.038-6.5-9s2.916-9,6.5-9s6.5,4.038,6.5,9S24.084,41,20.5,41z M20.5,25c-2.439,0-4.5,3.206-4.5,7s2.061,7,4.5,7s4.5-3.206,4.5-7S22.939,25,20.5,25z"/><linearGradient id="SqvxpZ3tFMaNTjPzMdxkhb" x1="32.5" x2="32.5" y1="5.999" y2="58.001" gradientUnits="userSpaceOnUse"><stop offset="0" stop-color="#1a6dff"/><stop offset="1" stop-color="#c822ff"/></linearGradient><path fill="url(#SqvxpZ3tFMaNTjPzMdxkhb)" d="M52,15H34V8.975c0-0.938-0.432-1.801-1.185-2.367c-0.763-0.575-1.73-0.755-2.651-0.488 l-18.561,5.342C9.482,12.072,8,14.025,8,16.211v31.578c0,2.187,1.482,4.14,3.603,4.75l18.561,5.342 c0.28,0.081,0.564,0.12,0.845,0.12c0.645,0,1.274-0.208,1.806-0.608C33.568,56.827,34,55.963,34,55.026V49h18c2.757,0,5-2.243,5-5 V20C57,17.244,54.757,15,52,15z M32,11v42v2.026c0,0.304-0.142,0.584-0.388,0.77c-0.257,0.193-0.583,0.253-0.896,0.164 l-18.56-5.342C10.887,50.252,10,49.089,10,47.789V16.211c0-1.3,0.887-2.463,2.156-2.828l18.56-5.342 c0.312-0.09,0.638-0.03,0.896,0.164C31.858,8.391,32,8.671,32,8.975V11z M52,17c0.448,0,0.87,0.106,1.252,0.283l-15.256,16.26 L34,29.324V17H52z M55,44c0,1.654-1.346,3-3,3H34V32.231l3.274,3.456C37.463,35.887,37.726,36,38,36c0.001,0,0.002,0,0.002,0 c0.276,0,0.539-0.115,0.728-0.316l15.952-17.002C54.879,19.082,55,19.525,55,20V44z"/></svg>