<svg width="21" height="22" viewBox="0 0 21 22" fill="none" xmlns="http://www.w3.org/2000/svg">
<g id="icons8-outlook 1">
<path id="Vector" d="M6.72656 13.7985C5.55056 13.7985 4.59375 12.4735 4.59375 10.8453C4.59375 9.21718 5.55056 7.89221 6.72656 7.89221C7.90256 7.89221 8.85938 9.21718 8.85938 10.8453C8.85938 12.4735 7.90256 13.7985 6.72656 13.7985ZM6.72656 8.54846C5.92627 8.54846 5.25 9.60043 5.25 10.8453C5.25 12.0902 5.92627 13.1422 6.72656 13.1422C7.52686 13.1422 8.20312 12.0902 8.20312 10.8453C8.20312 9.60043 7.52686 8.54846 6.72656 8.54846Z" fill="#DBDDDF"/>
<path id="Vector_2" d="M17.0625 5.26718H11.1562V3.29023C11.1562 2.98245 11.0145 2.69928 10.7674 2.51356C10.5171 2.32489 10.1998 2.26583 9.89756 2.35344L3.80723 4.10628C3.11128 4.30643 2.625 4.94726 2.625 5.66454V16.0261C2.625 16.7437 3.11128 17.3845 3.80723 17.5847L9.89756 19.3375C9.98944 19.3641 10.0826 19.3769 10.1748 19.3769C10.3865 19.3769 10.5929 19.3086 10.7674 19.1774C11.0145 18.9917 11.1562 18.7082 11.1562 18.4007V16.4234H17.0625C17.9671 16.4234 18.7031 15.6874 18.7031 14.7828V6.90781C18.7031 6.0035 17.9671 5.26718 17.0625 5.26718ZM10.5 3.95469V17.7359V18.4007C10.5 18.5005 10.4534 18.5923 10.3727 18.6534C10.2884 18.7167 10.1814 18.7364 10.0787 18.7072L3.98869 16.9543C3.5723 16.8342 3.28125 16.4526 3.28125 16.0261V5.66454C3.28125 5.23798 3.5723 4.85637 3.98869 4.73661L10.0787 2.98376C10.1811 2.95423 10.288 2.97392 10.3727 3.03758C10.4534 3.09861 10.5 3.19048 10.5 3.29023V3.95469ZM17.0625 5.92343C17.2095 5.92343 17.348 5.95822 17.4733 6.01629L12.4674 11.3516L11.1562 9.96725V5.92343H17.0625ZM18.0469 14.7828C18.0469 15.3255 17.6052 15.7672 17.0625 15.7672H11.1562V10.9211L12.2305 12.0551C12.2925 12.1207 12.3788 12.1578 12.4688 12.1578C12.5593 12.1578 12.6463 12.1201 12.7083 12.0541L17.9425 6.47534C18.0072 6.60659 18.0469 6.75195 18.0469 6.90781V14.7828Z" fill="#DBDDDF" stroke="#DBDDDF" stroke-width="0.303867"/>
</g>
</svg>
