<svg width="16" height="16" viewBox="0 0 16 16" fill="none" xmlns="http://www.w3.org/2000/svg">
<path d="M4.20204 2.19336C2.90826 2.19336 1.85944 3.24218 1.85944 4.53597V11.0953C1.85944 12.3891 2.90826 13.4379 4.20204 13.4379H10.7613C12.0551 13.4379 13.1039 12.3891 13.1039 11.0953V4.53597C13.1039 3.24218 12.0551 2.19336 10.7613 2.19336H4.20204ZM12.1669 7.81561H9.8243L9.74008 7.82316C9.52152 7.86283 9.35578 8.05413 9.35578 8.28414C9.35578 8.33302 9.34843 8.43583 9.32555 8.57314C9.28698 8.80453 9.2178 9.03513 9.11241 9.24591C8.82312 9.8245 8.32253 10.1582 7.48169 10.1582C6.64085 10.1582 6.14026 9.8245 5.85097 9.24591C5.74558 9.03513 5.6764 8.80453 5.63783 8.57314C5.61495 8.43583 5.60761 8.33302 5.60761 8.28414C5.60761 8.02538 5.39784 7.81561 5.13908 7.81561H2.79648V4.53597C2.79648 3.75969 3.42577 3.1304 4.20204 3.1304H10.7613C11.5376 3.1304 12.1669 3.75969 12.1669 4.53597V7.81561ZM2.79648 8.75266H4.71179L4.74496 8.91571C4.79828 9.15153 4.88386 9.40698 5.01285 9.66497C5.45562 10.5505 6.27275 11.0953 7.48169 11.0953C8.69063 11.0953 9.50776 10.5505 9.95053 9.66497L10.0393 9.47222C10.1203 9.28048 10.1784 9.09258 10.2184 8.91571L10.2507 8.75266H12.1669V11.0953C12.1669 11.8715 11.5376 12.5008 10.7613 12.5008H4.20204C3.42577 12.5008 2.79648 11.8715 2.79648 11.0953V8.75266Z" fill="#424242"/>
</svg>