<svg width="16" height="16" viewBox="0 0 16 16" fill="none" xmlns="http://www.w3.org/2000/svg">
<g clip-path="url(#clip0_45_13375)">
<path d="M1.85947 4.47005V5.87561H5.2195C5.34376 5.87561 5.46293 5.82625 5.5508 5.73839L6.81913 4.47005L5.5508 3.20171C5.46293 3.11385 5.34376 3.06448 5.2195 3.06448H3.26503C2.48876 3.06448 1.85947 3.69378 1.85947 4.47005ZM0.922424 4.47005C0.922424 3.17626 1.97124 2.12744 3.26503 2.12744H5.2195C5.59228 2.12744 5.94979 2.27553 6.21338 2.53912L7.67579 4.00153H11.6984C12.9922 4.00153 14.041 5.05035 14.041 6.34413V7.05363C13.7532 6.81597 13.4392 6.60895 13.104 6.43756V6.34413C13.104 5.56786 12.4747 4.93857 11.6984 4.93857H7.67579L6.21338 6.40097C5.94979 6.66457 5.59228 6.81265 5.2195 6.81265H1.85947V11.0293C1.85947 11.8056 2.48876 12.4349 3.26503 12.4349H5.80164C5.89403 12.7616 6.01784 13.0751 6.16959 13.372H3.26503C1.97124 13.372 0.922424 12.3231 0.922424 11.0293V4.47005ZM6.54468 11.0293C6.54468 13.3582 8.43256 15.246 10.7614 15.246C13.0902 15.246 14.9781 13.3582 14.9781 11.0293C14.9781 8.70053 13.0902 6.81265 10.7614 6.81265C8.43256 6.81265 6.54468 8.70053 6.54468 11.0293ZM7.48172 11.0293C7.48172 9.21805 8.95007 7.7497 10.7614 7.7497C11.498 7.7497 12.178 7.99258 12.7255 8.40264L8.13466 12.9935C7.7246 12.446 7.48172 11.766 7.48172 11.0293ZM10.7614 14.309C10.0247 14.309 9.34475 14.0661 8.79725 13.6561L13.3881 9.06522C13.7981 9.61273 14.041 10.2927 14.041 11.0293C14.041 12.8406 12.5727 14.309 10.7614 14.309Z" fill="#424242"/>
</g>
<defs>
<clipPath id="clip0_45_13375">
<rect width="14.9927" height="14.9927" fill="white" transform="translate(0.481689 0.749756)"/>
</clipPath>
</defs>
</svg>

