<svg width="20" height="20" viewBox="0 0 20 20" fill="none" xmlns="http://www.w3.org/2000/svg">
<path d="M14.6427 3.74805C15.9365 3.74805 16.9854 4.79687 16.9854 6.09065V13.587C16.9854 14.8808 15.9365 15.9296 14.6427 15.9296H4.33528C3.0415 15.9296 1.99268 14.8808 1.99268 13.587V6.09065C1.99268 4.79687 3.0415 3.74805 4.33528 3.74805H14.6427ZM16.0483 7.45967L9.72657 11.1797C9.60438 11.2516 9.45773 11.2636 9.32739 11.2156L9.25147 11.1797L2.92972 7.46155V13.587C2.92972 14.3633 3.55901 14.9926 4.33528 14.9926H14.6427C15.419 14.9926 16.0483 14.3633 16.0483 13.587V7.45967ZM14.6427 4.68509H4.33528C3.55901 4.68509 2.92972 5.31438 2.92972 6.09065V6.37364L9.48902 10.2323L16.0483 6.3727V6.09065C16.0483 5.31438 15.419 4.68509 14.6427 4.68509Z" fill="white"/>
</svg>
