<svg width="29" height="29" viewBox="0 0 29 29" fill="none" xmlns="http://www.w3.org/2000/svg">
<path fill-rule="evenodd" clip-rule="evenodd" d="M2.77661 20.246C2.77661 19.9903 2.87819 19.7451 3.05899 19.5643C3.23979 19.3835 3.48501 19.2819 3.74071 19.2819H24.9508C25.2065 19.2819 25.4517 19.3835 25.6325 19.5643C25.8133 19.7451 25.9149 19.9903 25.9149 20.246C25.9149 20.5017 25.8133 20.7469 25.6325 20.9277C25.4517 21.1085 25.2065 21.2101 24.9508 21.2101H3.74071C3.48501 21.2101 3.23979 21.1085 3.05899 20.9277C2.87819 20.7469 2.77661 20.5017 2.77661 20.246ZM2.77661 14.4614C2.77661 14.2057 2.87819 13.9605 3.05899 13.7797C3.23979 13.5989 3.48501 13.4973 3.74071 13.4973H24.9508C25.2065 13.4973 25.4517 13.5989 25.6325 13.7797C25.8133 13.9605 25.9149 14.2057 25.9149 14.4614C25.9149 14.7171 25.8133 14.9624 25.6325 15.1432C25.4517 15.324 25.2065 15.4255 24.9508 15.4255H3.74071C3.48501 15.4255 3.23979 15.324 3.05899 15.1432C2.87819 14.9624 2.77661 14.7171 2.77661 14.4614ZM2.77661 8.67686C2.77661 8.42117 2.87819 8.17595 3.05899 7.99515C3.23979 7.81434 3.48501 7.71277 3.74071 7.71277H24.9508C25.2065 7.71277 25.4517 7.81434 25.6325 7.99515C25.8133 8.17595 25.9149 8.42117 25.9149 8.67686C25.9149 8.93256 25.8133 9.17778 25.6325 9.35858C25.4517 9.53939 25.2065 9.64096 24.9508 9.64096H3.74071C3.48501 9.64096 3.23979 9.53939 3.05899 9.35858C2.87819 9.17778 2.77661 8.93256 2.77661 8.67686Z" fill="#98A2A6"/>
</svg>
