<svg width="20" height="19" viewBox="0 0 20 19" fill="none" xmlns="http://www.w3.org/2000/svg">
<path d="M7.02091 3.25441C7.20387 3.43738 7.20387 3.73403 7.02091 3.917L3.13551 7.8024L7.02091 11.6878C7.20387 11.8708 7.20387 12.1674 7.02091 12.3504C6.83794 12.5334 6.54129 12.5334 6.35832 12.3504L2.14163 8.13369C1.95866 7.95073 1.95866 7.65407 2.14163 7.47111L6.35832 3.25441C6.54129 3.07145 6.83794 3.07145 7.02091 3.25441ZM9.83203 3.25441C10.015 3.43738 10.015 3.73403 9.83203 3.917L6.41516 7.33388H9.96926C13.8506 7.33388 16.9971 10.4803 16.9971 14.3617C16.9971 14.6205 16.7873 14.8302 16.5286 14.8302C16.2698 14.8302 16.06 14.6205 16.06 14.3617C16.06 10.9979 13.3331 8.27092 9.96926 8.27092H6.41516L9.83203 11.6878C10.015 11.8708 10.015 12.1674 9.83203 12.3504C9.64906 12.5334 9.35241 12.5334 9.16944 12.3504L4.95275 8.13369C4.76978 7.95073 4.76978 7.65407 4.95275 7.47111L9.16944 3.25441C9.35241 3.07145 9.64906 3.07145 9.83203 3.25441Z" fill="#881798"/>
</svg>
