<svg width="19" height="19" viewBox="0 0 19 19" fill="none" xmlns="http://www.w3.org/2000/svg">
<path d="M6.67248 3.25441C6.85545 3.43738 6.85545 3.73403 6.67248 3.917L3.25561 7.33388H9.62084C13.5022 7.33388 16.6487 10.4803 16.6487 14.3617C16.6487 14.6205 16.4389 14.8302 16.1801 14.8302C15.9214 14.8302 15.7116 14.6205 15.7116 14.3617C15.7116 10.9979 12.9847 8.27092 9.62084 8.27092H3.25561L6.67248 11.6878C6.85545 11.8708 6.85545 12.1674 6.67248 12.3504C6.48951 12.5334 6.19286 12.5334 6.00989 12.3504L1.7932 8.13369C1.61023 7.95073 1.61023 7.65407 1.7932 7.47111L6.00989 3.25441C6.19286 3.07145 6.48951 3.07145 6.67248 3.25441Z" fill="#881798"/>
</svg>
