<svg width="16" height="16" viewBox="0 0 16 16" fill="none" xmlns="http://www.w3.org/2000/svg">
<g clip-path="url(#clip0_45_13365)">
<path d="M1.08813 0.834424C1.2312 0.713218 1.43277 0.688997 1.60049 0.772857L13.782 6.86363C13.9408 6.94299 14.041 7.10522 14.041 7.28269C14.041 7.46015 13.9408 7.62238 13.782 7.70174L1.60049 13.7925C1.43277 13.8764 1.2312 13.8522 1.08813 13.7309C0.945045 13.6097 0.888017 13.4149 0.943163 13.2357L2.77485 7.28269L0.943163 1.3297C0.888017 1.15047 0.945045 0.955631 1.08813 0.834424ZM3.61108 7.75121L2.16077 12.4647L12.5249 7.28269L2.16077 2.10064L3.61108 6.81417H8.88729C9.14605 6.81417 9.35581 7.02393 9.35581 7.28269C9.35581 7.54144 9.14605 7.75121 8.88729 7.75121H3.61108Z" fill="#424242"/>
</g>
<defs>
<clipPath id="clip0_45_13365">
<rect width="14.9927" height="14.9927" fill="white" transform="translate(0.481689 0.282715)"/>
</clipPath>
</defs>
</svg>
